<svg width="1188" height="708" xmlns="http://www.w3.org/2000/svg"><g fill="none" fill-rule="evenodd"><path d="M930.569 265.066c.079-.446.31-.866.694-1.257.589-.663 1.583-.948 2.625-.612l21.525 6.405 16.278-12.014c.715-.487 1.835-.595 2.572-.313a2.485 2.485 0 0 1 1.337 2.23l.351 20.314 17.93 12.52c.684.583 1.163 1.435 1.006 2.326-.157.893-.773 1.707-1.614 2.017l-20.452 7.134-6.872 19.349a2.485 2.485 0 0 1-2.02 1.638c-.968.136-1.857-.175-2.336-1.027l-8.822-11.528c-.911-1.08-.649-2.568.45-3.45 1.1-.88 2.625-.61 3.536.472l6.017 7.81 5.685-16.182c.284-.717.846-1.23 1.51-1.421l17.11-6.035-15.114-10.642c-.71-.432-1.037-1.257-1.059-2.028l-.218-16.608-13.363 9.763c-.716.489-1.53.652-2.267.367l-17.69-4.96 6.257 15.373c.326.825.17 1.716-.267 2.406l-10.768 14.672 16.42-.325c1.425-.057 2.488 1.05 2.557 2.444.069 1.394-1.056 2.423-2.482 2.479l-21.359.681c-.942-.01-1.805-.47-2.284-1.321-.48-.852-.448-1.922.141-2.585l12.87-17.676-7.662-18.996c-.227-.499-.3-.972-.222-1.42M366.62 395.662c-.201.182-.465.294-.789.337-.521.096-1.094-.136-1.461-.677l-7.778-10.933-12.081-.33c-.516-.034-1.083-.396-1.327-.8a1.485 1.485 0 0 1 .191-1.541l7.307-9.693-3.836-12.489c-.108-.525-.02-1.103.382-1.464.402-.363.991-.52 1.501-.356l12.252 4.164 10.352-6.581a1.485 1.485 0 0 1 1.554-.029c.505.292.81.766.721 1.343l-.086 8.672c.031.843-.64 1.447-1.481 1.458-.841.01-1.46-.678-1.491-1.522l.04-5.89-8.628 5.527c-.397.233-.85.268-1.234.114l-10.275-3.453 3.202 10.57c.175.464.026.972-.248 1.343l-6.006 7.9 9.882.318c.517.033.96.256 1.202.661l6.504 8.842 2.709-9.539c.15-.508.551-.87 1.01-1.035l10.466-2.946-7.85-5.886c-.692-.497-.785-1.41-.305-2.091.48-.682 1.389-.753 2.08-.254l10.306 7.535c.44.351.677.885.59 1.462-.088.577-.496 1.07-1.018 1.165l-12.56 3.587-3.38 11.761c-.076.319-.215.569-.417.75M1024.17 338c-.33 0-.662-.113-.992-.34-.551-.339-.882-1.017-.773-1.81l1.877-16.289-10.703-10.18c-.441-.453-.66-1.245-.551-1.81a1.815 1.815 0 0 1 1.434-1.245l14.562-2.828 6.73-14.48c.332-.566.883-1.018 1.544-1.018.662 0 1.325.34 1.655.905l7.722 13.8 14.785 2.49c.66.113 1.212.565 1.434 1.244.22.679.109 1.357-.443 1.81l-7.17 7.805c-.661.792-1.765.792-2.538.113-.772-.678-.772-1.81-.11-2.601l4.854-5.317-12.356-2.036c-.552-.113-.992-.453-1.214-.905l-6.508-11.539-5.736 12.217c-.22.566-.772.905-1.324 1.019l-11.914 2.262 8.714 8.371c.442.452.663 1.018.551 1.584l-1.323 13.348 10.26-6.448c.552-.34 1.213-.34 1.764-.113l11.915 5.882-2.316-11.764c-.221-1.018.44-1.923 1.434-2.15.994-.226 1.876.453 2.097 1.471l3.198 15.271c.111.68-.11 1.358-.66 1.81-.553.453-1.326.566-1.877.227l-14.342-7.014-12.687 7.919c-.33.226-.66.339-.993.339M886.213 426c-.57 0-1.139-.195-1.706-.584-.949-.583-1.518-1.75-1.33-3.113l3.227-28.018-18.408-17.511c-.759-.779-1.136-2.14-.948-3.113a3.121 3.121 0 0 1 2.466-2.14l25.048-4.865 11.574-24.905c.572-.973 1.52-1.751 2.657-1.751 1.138 0 2.279.584 2.846 1.557l13.283 23.737 25.428 4.28a3.121 3.121 0 0 1 2.467 2.14c.38 1.168.188 2.336-.76 3.114l-12.335 13.425c-1.136 1.362-3.034 1.362-4.364.195-1.328-1.167-1.328-3.113-.188-4.475l8.347-9.145-21.252-3.502c-.948-.195-1.706-.778-2.087-1.557l-11.195-19.846-9.865 21.014c-.38.973-1.329 1.556-2.277 1.75l-20.494 3.892 14.989 14.398c.76.779 1.14 1.752.949 2.724l-2.277 22.96 17.648-11.09c.95-.585 2.086-.585 3.034-.195l20.494 10.117-3.983-20.235c-.382-1.751.757-3.308 2.465-3.697 1.71-.39 3.227.778 3.607 2.53l5.5 26.266c.192 1.168-.187 2.335-1.136 3.114-.949.778-2.279.972-3.228.389l-24.667-12.064-21.822 13.62c-.567.39-1.136.584-1.707.584M957.997 186.506c-.148-.211-.223-.473-.226-.785-.03-.504.255-1.02.81-1.304l11.248-6.089 1.717-11.393c.091-.484.499-.979.91-1.162a1.415 1.415 0 0 1 1.436.36l8.322 8.039 12.262-2.178c.51-.041 1.046.109 1.342.531.296.423.376.998.162 1.462l-5.363 11.109 5.024 10.56a1.415 1.415 0 0 1-.153 1.472c-.335.445-.819.678-1.355.527l-8.195-1.09c-.802-.067-1.295-.772-1.208-1.57.089-.797.811-1.303 1.614-1.234l5.568.723-4.227-8.806a1.337 1.337 0 0 1 .036-1.18l4.46-9.321-10.372 1.8c-.46.113-.924-.088-1.243-.39l-6.776-6.6-1.45 9.313c-.091.485-.354.879-.765 1.06l-9.121 5.127 8.71 3.671c.464.2.76.623.862 1.077l1.572 10.244 6.48-6.743c.552-.597 1.426-.579 2.015-.046.59.534.55 1.402-.001 1.998l-8.327 8.876c-.384.375-.916.538-1.452.388-.536-.15-.954-.594-.984-1.098l-1.935-12.301-10.736-4.564c-.292-.11-.512-.27-.66-.483M1064.048 195.542c.16-.1.356-.146.586-.136.372-.003.74.227.927.646l4.042 8.5 8.307 1.702c.352.086.7.404.819.713.098.398-.033.786-.32 1.042l-6.229 5.807 1.129 9.096c.01.376-.12.764-.442.965-.323.201-.749.238-1.081.063l-7.958-4.37-7.954 3.286a1.042 1.042 0 0 1-1.077-.17c-.314-.263-.466-.627-.335-1.015l1.116-5.981c.081-.587.618-.922 1.201-.827.583.095.927.646.845 1.233l-.745 4.065 6.634-2.767a.984.984 0 0 1 .866.07l6.679 3.638-.924-7.692c-.065-.343.1-.676.334-.899l5.113-4.725-6.79-1.425c-.352-.085-.632-.294-.75-.603l-3.416-6.901-3.033 6.26a1.12 1.12 0 0 1-.825.592l-7.59.76 4.707 5.024c.417.428.37 1.07-.044 1.482-.415.413-1.051.35-1.468-.078l-6.203-6.462a1.09 1.09 0 0 1-.229-1.082c.131-.388.473-.678.845-.68l9.115-.949 3.768-7.714c.091-.21.218-.367.38-.468M1123.747 223.467a.73.73 0 0 1 .257-.355c.203-.18.515-.229.818-.088l6.285 2.742 5.38-3.035a.935.935 0 0 1 .79 0 .759.759 0 0 1 .323.726l-.65 6.169 4.968 4.461c.186.202.3.478.218.742a.808.808 0 0 1-.564.551l-6.463 1.401-2.802 5.608a.759.759 0 0 1-.673.421c-.299.005-.556-.122-.67-.398l-2.245-3.822c-.235-.36-.1-.802.265-1.028.366-.226.819-.088 1.054.274l1.533 2.59 2.325-4.691a.717.717 0 0 1 .51-.375l5.41-1.192-4.184-3.787c-.2-.158-.268-.42-.246-.654l.552-5.041-4.413 2.461c-.235.122-.488.14-.7.027l-5.176-2.161 1.324 4.891a.816.816 0 0 1-.17.72l-3.81 4.045 4.988.512c.434.036.715.411.684.836-.03.425-.41.695-.844.659l-6.498-.588a.794.794 0 0 1-.643-.486c-.113-.276-.064-.599.139-.778l4.558-4.877-1.615-6.042a.73.73 0 0 1-.015-.438M1001.517 221.132c.056-.182.173-.344.353-.487.279-.246.707-.314 1.123-.121l8.628 3.764 7.385-4.167c.322-.166.794-.153 1.086.001.335.236.491.615.442.997l-.891 8.468 6.82 6.125c.254.277.41.656.299 1.019-.111.363-.409.67-.775.756l-8.872 1.923-3.847 7.699c-.173.343-.514.57-.924.578-.41.007-.764-.168-.92-.547l-3.08-5.246c-.325-.496-.14-1.101.363-1.412.502-.31 1.123-.12 1.446.377l2.105 3.556 3.191-6.441a.984.984 0 0 1 .7-.514l7.427-1.637-5.744-5.2c-.273-.215-.367-.575-.337-.897l.758-6.92-6.058 3.379c-.322.167-.67.193-.962.037l-7.105-2.967 1.817 6.715a1.12 1.12 0 0 1-.234.987l-5.229 5.554 6.847.703c.596.049.982.564.94 1.147-.043.584-.564.954-1.16.905l-8.92-.808a1.09 1.09 0 0 1-.883-.666c-.155-.379-.088-.822.191-1.068l6.257-6.696-2.217-8.294a1.002 1.002 0 0 1-.02-.602M1056.676 122.4a.718.718 0 0 1 .253-.35c.2-.177.507-.225.806-.087l6.19 2.7 5.298-2.989c.232-.119.57-.11.78.001.24.17.352.441.317.715l-.64 6.076 4.893 4.394c.183.199.295.47.215.73a.796.796 0 0 1-.556.544l-6.365 1.38-2.76 5.523a.747.747 0 0 1-.664.415c-.293.005-.547-.12-.66-.393l-2.21-3.764c-.232-.355-.1-.79.261-1.013.36-.222.806-.086 1.038.27l1.51 2.552 2.29-4.621a.706.706 0 0 1 .502-.37l5.328-1.173-4.12-3.73c-.197-.156-.264-.414-.242-.644l.543-4.966-4.346 2.425c-.232.12-.481.138-.69.026l-5.098-2.129 1.304 4.818a.803.803 0 0 1-.168.709l-3.752 3.984 4.913.505c.427.035.704.405.674.823-.03.419-.404.684-.832.649l-6.4-.58a.782.782 0 0 1-.633-.478c-.112-.272-.063-.59.137-.766l4.489-4.804-1.591-5.95a.719.719 0 0 1-.014-.433M1125.564 108.711a.488.488 0 0 1-.056-.288.5.5 0 0 1 .33-.441l4.214-1.826.97-4.022a.626.626 0 0 1 .363-.387.508.508 0 0 1 .502.174l2.725 3.136 4.455-.396c.183.002.37.072.463.232.093.161.103.37.012.529l-2.266 3.805 1.467 3.935a.508.508 0 0 1-.101.522c-.134.148-.314.216-.501.146l-2.897-.646c-.285-.05-.44-.317-.383-.6.056-.282.33-.44.616-.39l1.969.432-1.237-3.282a.48.48 0 0 1 .05-.421l1.887-3.195-3.766.32c-.168.026-.328-.06-.433-.179l-2.217-2.573-.81 3.286c-.048.17-.154.303-.307.356l-3.423 1.548 3.001 1.586c.16.086.252.246.274.412l.242 3.713 2.53-2.209c.215-.196.527-.162.721.047.194.21.153.518-.063.714l-3.256 2.915a.532.532 0 0 1-.531.093c-.187-.07-.323-.242-.318-.424l-.307-4.46-3.697-1.969a.489.489 0 0 1-.222-.193M1178.072 5.655a.335.335 0 0 1-.039-.197.343.343 0 0 1 .227-.303l2.888-1.251.665-2.756a.43.43 0 0 1 .248-.265.348.348 0 0 1 .344.119l1.868 2.149 3.052-.271c.126 0 .254.049.318.159a.37.37 0 0 1 .008.362l-1.553 2.608 1.005 2.696a.348.348 0 0 1-.069.358c-.092.102-.215.148-.343.1l-1.986-.443c-.195-.034-.3-.217-.262-.41.039-.194.227-.303.422-.269l1.35.297-.848-2.25a.33.33 0 0 1 .034-.288l1.293-2.19-2.58.22c-.116.017-.225-.042-.297-.122l-1.52-1.764-.555 2.252c-.032.117-.105.208-.21.244l-2.346 1.06 2.057 1.087c.109.06.172.17.188.283l.165 2.545 1.734-1.514c.148-.135.362-.112.494.032.133.143.105.355-.043.49l-2.231 1.997a.364.364 0 0 1-.364.063c-.129-.048-.222-.166-.218-.29l-.21-3.057-2.534-1.349a.335.335 0 0 1-.152-.132M428.833 542.16c-.263.198-.594.306-.991.324-.642.06-1.312-.28-1.7-.976l-8.266-14.074-14.607-1.682c-.622-.096-1.271-.594-1.523-1.109a1.806 1.806 0 0 1 .395-1.848l9.882-10.972-3.324-15.543c-.075-.648.092-1.338.618-1.734.526-.397 1.256-.524 1.857-.272l14.407 6.345 13.244-6.878a1.806 1.806 0 0 1 1.886.13c.582.408.9 1.014.732 1.704l-1.024 10.501c-.051 1.025-.928 1.686-1.95 1.61-1.02-.077-1.698-.976-1.645-2.003l.673-7.134-11.043 5.783c-.506.24-1.06.235-1.507.008l-12.086-5.274 2.759 13.149c.163.581-.072 1.182-.443 1.602l-8.116 8.936 11.942 1.435c.623.094 1.137.412 1.387.928l6.944 11.405 4.295-11.273c.235-.6.76-.996 1.335-1.146l12.995-2.462-8.888-7.965c-.786-.677-.802-1.793-.149-2.567.655-.776 1.763-.765 2.549-.088l11.69 10.225c.496.473.727 1.145.56 1.835-.168.69-.715 1.243-1.357 1.304l-15.603 3.016-5.342 13.895c-.126.377-.322.666-.586.865M280.37 486.606c-.087.448-.021.926.199 1.433.314.836 1.146 1.463 2.248 1.524l22.563 1.747 10.975 17.18c.496.718 1.511 1.224 2.306 1.225a2.504 2.504 0 0 0 2.064-1.616l7.666-18.984 21.389-5.304c.854-.3 1.612-.929 1.786-1.824.174-.897-.111-1.884-.79-2.48l-16.664-14.097.522-20.684a2.504 2.504 0 0 0-1.308-2.27c-.862-.478-1.81-.506-2.569.122l-12.463 7.66c-1.247.686-1.537 2.18-.821 3.407.716 1.225 2.248 1.523 3.496.833l8.48-5.174-.494 17.275c.008.777.351 1.463.906 1.883l13.918 11.856-18.062 4.553c-.824.15-1.43.808-1.728 1.526l-6.203 15.546-9.046-14.01c-.496-.719-1.204-1.167-2-1.165l-18.433-1.722 11.438-12.203c.605-.658.779-1.553.618-2.36l-4.832-17.69 15.329 6.235c1.32.568 2.721-.09 3.289-1.376.568-1.287-.119-2.661-1.44-3.228l-19.847-8.355c-.89-.33-1.868-.21-2.626.419-.759.628-1.115 1.646-.801 2.483l5.725 21.276-14.069 15.103c-.393.387-.634.806-.721 1.256M403.59 439.217c-.106.547-.025 1.131.243 1.75.384 1.02 1.4 1.786 2.745 1.86l27.543 2.133 13.397 20.973c.606.875 1.845 1.492 2.816 1.494a3.057 3.057 0 0 0 2.519-1.972l9.358-23.174 26.11-6.475c1.042-.367 1.968-1.134 2.18-2.227.213-1.095-.135-2.3-.964-3.028l-20.342-17.208.637-25.25a3.057 3.057 0 0 0-1.597-2.771c-1.051-.583-2.21-.617-3.135.15l-15.214 9.35c-1.522.838-1.877 2.662-1.003 4.16.874 1.495 2.745 1.858 4.268 1.016l10.353-6.316-.605 21.088c.01.949.43 1.786 1.107 2.298l16.99 14.474-22.049 5.558c-1.006.183-1.745.986-2.11 1.862l-7.571 18.977-11.043-17.102c-.606-.877-1.47-1.424-2.442-1.422l-22.501-2.101 13.962-14.897c.739-.803.951-1.896.754-2.881l-5.898-21.596 18.712 7.612c1.613.694 3.322-.11 4.016-1.679.693-1.571-.145-3.249-1.758-3.941l-24.228-10.199c-1.087-.402-2.28-.255-3.206.511-.926.767-1.361 2.01-.977 3.031l6.988 25.973-17.174 18.436c-.48.473-.773.984-.88 1.533M218.256 600.43c-.062.319-.015.659.141 1.019.224.595.816 1.04 1.599 1.084l16.042 1.242 7.802 12.214c.353.51 1.075.87 1.64.87a1.78 1.78 0 0 0 1.467-1.148l5.45-13.497 15.208-3.77c.607-.215 1.146-.661 1.27-1.298.123-.637-.08-1.34-.562-1.763l-11.848-10.022.371-14.706a1.78 1.78 0 0 0-.93-1.615c-.612-.34-1.287-.359-1.826.088l-8.86 5.445c-.887.488-1.094 1.551-.585 2.423.51.87 1.599 1.083 2.486.592l6.03-3.679-.353 12.283c.006.552.25 1.04.645 1.338l9.895 8.43-12.841 3.237c-.586.107-1.017.574-1.229 1.084l-4.41 11.053-6.431-9.96c-.353-.512-.857-.83-1.422-.829l-13.106-1.224 8.132-8.676c.43-.468.554-1.104.44-1.678l-3.436-12.577 10.899 4.433c.939.404 1.934-.064 2.338-.978.404-.915-.084-1.892-1.024-2.295l-14.11-5.94c-.633-.235-1.328-.15-1.868.297-.539.447-.792 1.17-.569 1.766l4.07 15.127-10.002 10.737c-.28.276-.45.573-.513.893M169.84 557.689c-.043.218-.01.45.096.697.153.407.558.712 1.094.741l10.976.85 5.339 8.358c.241.348.735.594 1.122.595.475-.06.844-.365 1.003-.786l3.73-9.235 10.404-2.58c.416-.146.785-.452.87-.887.084-.436-.055-.917-.385-1.207l-8.106-6.857.254-10.062c.01-.45-.218-.871-.637-1.105-.419-.232-.88-.245-1.25.06l-6.062 3.726c-.606.334-.748 1.061-.4 1.658.349.596 1.094.74 1.701.405l4.126-2.517-.241 8.404c.004.378.171.711.44.915l6.771 5.768-8.786 2.215c-.401.073-.695.393-.84.742l-3.018 7.562-4.4-6.815c-.242-.35-.586-.567-.973-.566l-8.967-.838 5.564-5.936a1.31 1.31 0 0 0 .3-1.148l-2.35-8.606 7.457 3.033c.642.277 1.323-.044 1.6-.669.276-.626-.058-1.295-.7-1.57l-9.656-4.064a1.274 1.274 0 0 0-1.277.203c-.369.306-.543.8-.39 1.208l2.785 10.35-6.843 7.347a1.171 1.171 0 0 0-.351.61M130.507 635.645a.862.862 0 0 0 .07.513c.113.3.411.524.806.546l8.077.625 3.93 6.151c.177.257.54.438.825.438a.897.897 0 0 0 .739-.578l2.745-6.797 7.657-1.898c.306-.108.577-.333.64-.654.062-.32-.04-.674-.284-.887l-5.965-5.047.187-7.405a.897.897 0 0 0-.469-.813c-.308-.171-.648-.181-.92.044l-4.461 2.742c-.447.246-.55.78-.294 1.22.256.438.805.545 1.251.298l3.037-1.853-.178 6.185a.847.847 0 0 0 .325.674l4.983 4.245-6.467 1.63c-.295.054-.512.29-.618.546l-2.221 5.566-3.239-5.016c-.177-.257-.43-.418-.716-.417l-6.599-.616 4.095-4.37a.964.964 0 0 0 .221-.844l-1.73-6.333 5.488 2.232c.473.203.974-.032 1.178-.493.203-.46-.043-.952-.516-1.155l-7.105-2.991a.938.938 0 0 0-.94.15c-.272.224-.4.589-.287.888l2.05 7.618-5.037 5.406a.862.862 0 0 0-.258.45" fill="#FFF"/><path d="M278.482 633.039a.862.862 0 0 0 .07.513c.113.3.411.524.806.546l8.077.625 3.93 6.15c.177.258.54.439.825.439a.897.897 0 0 0 .739-.578l2.745-6.797 7.657-1.899c.306-.107.577-.332.64-.653.062-.32-.04-.674-.283-.888l-5.966-5.046.187-7.406a.897.897 0 0 0-.469-.812c-.308-.171-.648-.181-.92.043l-4.461 2.743c-.447.245-.55.78-.294 1.22.256.438.805.545 1.251.298l3.037-1.853-.178 6.185a.847.847 0 0 0 .325.674l4.983 4.245-6.467 1.63c-.295.054-.511.29-.618.546l-2.221 5.566-3.239-5.016c-.177-.257-.43-.418-.716-.417l-6.599-.616 4.095-4.37a.964.964 0 0 0 .221-.844l-1.73-6.334 5.488 2.233c.473.203.974-.033 1.178-.493.203-.46-.043-.953-.516-1.156l-7.105-2.99a.938.938 0 0 0-.94.15c-.272.224-.4.589-.287.888l2.05 7.617-5.037 5.407a.862.862 0 0 0-.258.45" fill="#EDEDF2" opacity=".386"/><path d="M43.35 646.276a.618.618 0 0 0 .052.369c.08.214.294.376.577.391l5.796.449 2.819 4.413a.793.793 0 0 0 .592.314.643.643 0 0 0 .53-.415l1.97-4.876 5.493-1.362c.22-.078.414-.239.46-.469a.685.685 0 0 0-.204-.637l-4.28-3.62.134-5.314a.643.643 0 0 0-.336-.583c-.221-.123-.465-.13-.66.032l-3.201 1.967c-.32.176-.395.56-.211.875.184.315.578.391.898.214l2.178-1.329-.127 4.438c.002.2.09.375.233.483l3.575 3.046-4.64 1.169c-.211.039-.367.208-.443.392l-1.594 3.993-2.323-3.599c-.128-.184-.31-.3-.514-.299l-4.734-.442 2.937-3.135a.692.692 0 0 0 .16-.606l-1.242-4.544 3.937 1.602c.34.146.7-.023.845-.353.146-.331-.03-.684-.37-.83l-5.098-2.146a.673.673 0 0 0-.674.108c-.195.161-.287.423-.206.638l1.47 5.465-3.613 3.879a.618.618 0 0 0-.185.322M.618 704.96a.288.288 0 0 0 .023.172c.038.1.138.176.27.183l2.7.21 1.314 2.056a.37.37 0 0 0 .276.146.3.3 0 0 0 .247-.193l.918-2.273 2.56-.635c.102-.036.193-.11.214-.218a.32.32 0 0 0-.095-.297l-1.994-1.687.062-2.476a.3.3 0 0 0-.157-.272c-.103-.057-.216-.06-.307.015l-1.492.917c-.15.082-.184.26-.098.408.086.146.269.182.418.1l1.015-.62-.059 2.068a.283.283 0 0 0 .109.225l1.666 1.42-2.162.544c-.099.018-.171.097-.207.183l-.743 1.86-1.082-1.676c-.06-.086-.145-.14-.24-.14l-2.206-.206 1.369-1.46a.322.322 0 0 0 .074-.283l-.579-2.117 1.835.746c.158.068.326-.01.394-.165.068-.154-.014-.318-.172-.386l-2.376-1a.314.314 0 0 0-.314.05c-.091.075-.134.197-.096.297l.685 2.547-1.684 1.808a.288.288 0 0 0-.086.15" fill="#FFF"/></g></svg>