<svg xmlns="http://www.w3.org/2000/svg" width="2500" height="2500" viewBox="0 0 192.756 192.756"><g fill-rule="evenodd" clip-rule="evenodd"><path fill="#fff" d="M0 0h192.756v192.756H0V0z"/><path d="M184.346 79.738a18.93 18.93 0 0 0-13.463-5.567H21.873c-10.498 0-19.039 8.526-19.039 19.008v6.399c0 5.076 1.98 9.85 5.576 13.439a18.926 18.926 0 0 0 13.462 5.567h149.01a18.93 18.93 0 0 0 13.463-5.567 18.866 18.866 0 0 0 5.576-13.439v-6.399a18.868 18.868 0 0 0-5.575-13.441zm3.381 19.844c0 9.131-7.455 16.561-16.617 16.561H21.646c-4.438 0-8.61-1.723-11.749-4.851s-4.867-7.286-4.867-11.71v-6.408c0-4.423 1.729-8.583 4.867-11.71a16.536 16.536 0 0 1 11.749-4.851h149.463c4.438 0 8.611 1.723 11.75 4.851a16.421 16.421 0 0 1 4.867 11.71v6.408h.001z"/><path d="M52.62 88.394V84.28h-5.766v4.114h5.766zM52.623 105.455V91.054h-5.771v14.401h5.771zM36.208 97.49V84.256h5.787v21.217h-5.219L27.114 90.95c-.775-1.082-1.602-.566-1.653.412v14.11h-5.787V84.256h6.304l9.146 13.853c.36.514 1.032.412 1.084-.619zM57.542 91.062v14.384h5.755v-8.733c0-5.137 7.194-5.034 7.194.205v8.528h5.755V94.967c0-2.466-2.878-4.83-5.96-4.83-2.364 0-6.063 1.335-6.988 2.363v-1.438h-5.756zM113.373 91.045v14.421h5.789V96.71c0-5.15 7.236-5.047 7.236.206v8.55h5.789V94.959c0-2.472-2.895-4.841-5.996-4.841-2.377 0-6.098 1.339-7.029 2.37v-1.442h-5.789v-.001zM81.564 105.473V91.047h-4.24v-1.649h4.24V87.44h5.794v1.958h4.241v1.649h-4.241v14.426h-5.794zM175.99 85.253c-1.346 0-2.426 1.062-2.426 2.368 0 1.327 1.08 2.388 2.426 2.388 1.338 0 2.418-1.061 2.418-2.388 0-1.307-1.08-2.368-2.418-2.368zm0 4.389a1.997 1.997 0 0 1-2.004-2.021c0-1.1.877-2.001 2.004-2.001s1.996.901 1.996 2.001c0 1.12-.869 2.021-1.996 2.021z"/><path d="M176.977 88.714c-.236-.357-.473-.709-.689-1.08.383-.08.627-.325.627-.702 0-.397-.279-.629-.766-.629h-1.035v2.657c.09-.007.18-.02.271-.02.09 0 .18.013.27.02v-1.246h.127l.723 1.246c.104-.007.207-.02.312-.02.104 0 .209.013.312.02l-.152-.246zm-1.321-1.122v-1.041h.215c.223 0 .445.02.445.484 0 .405-.207.59-.66.557zM166.031 90.186c-5.324 0-9.641 3.52-9.641 7.863s4.316 7.863 9.641 7.863 9.641-3.521 9.641-7.863-4.317-7.863-9.641-7.863zm2.883 11.358c0 1.591-1.291 2.879-2.883 2.879s-2.881-1.288-2.881-2.879v-6.785c0-1.59 1.289-2.879 2.881-2.879s2.883 1.289 2.883 2.879v6.785zM110.291 98.201c.002-.051.002-.102.002-.152 0-4.335-4.299-7.849-9.6-7.849-5.302 0-9.601 3.514-9.601 7.849s4.298 7.85 9.601 7.85c4.312 0 7.963-2.327 9.174-5.529l-6.295-.008v1.182a2.879 2.879 0 0 1-5.76 0v-3.342h12.479v-.001zm-12.475-3.44a2.876 2.876 0 1 1 5.754 0v1.285h-5.754v-1.285zM147.561 84.251v7.831c-1.654-1.185-3.826-1.648-4.758-1.545-1.441.16-7.445-.206-7.445 7.521 0 7.109 3.723 7.934 7.445 7.934 1.76 0 3.311-.618 4.758-1.545v1.029h5.791V84.251h-5.791zm0 18.021c-3.828 3.4-5.793.206-5.793-2.267v-3.709c0-3.916 4.24-4.225 5.793-1.855v7.831z"/></g></svg>