<svg height="2297" viewBox="0 -44.635 326.55 344.635" width="2500" xmlns="http://www.w3.org/2000/svg"><path d="m244.19 148.419c-15.219 34.543-46.535 52.622-79.983 52.204-64.16-3.182-82.823-77.276-39.946-104.026l1.887 1.886c-.732.96-3.22 2.978-7.23 10.823-4.671 9.533-6.095 19.034-5.543 24.977 3.339 51.795 75.8 62.329 100.759 11.128 31.77-70.234-52.44-141.562-127.207-87.048l-1.727-1.725c19.666-30.857 58.093-44.668 94.794-35.44 56.123 14.03 86.251 72.57 64.197 127.22zm-59.987-1.113c-5.195 7.479-13.846 12.376-23.642 12.376-15.89 0-28.77-12.88-28.77-28.77 0-15.187 11.768-27.624 26.683-28.693 9.288-.373 17.943 4.646 22.064 12.784 4.442 8.775 2.817 19.598-4.103 26.896zm-100.37-19c-1.387 11.426-.523 14.994-.526 16.352l-2.538.923c-.96-1.879-3.397-8.5-4.471-17.397-2.747-33.97 20.4-64.582 55.635-70.28 32.315-4.75 63.213 15.32 70.45 43.413l-2.545.927c-.756-.837-2.106-3.11-6.99-8.061-38.972-39.153-100.224-21.195-109.015 34.123zm184.834-18.839c-2.307-112.263-151.418-154.102-208.825-48.902 2.537 1.835 6.047 4.319 8.584 6.154-4.398 9.237-7.33 18.645-8.934 28.024a106.073 106.073 0 0 0 -1.7 18.95c0 58.257 47.226 105.483 105.483 105.483s105.483-47.226 105.483-105.484c0-1.415-.036-2.822-.091-4.225m57.883 141.749h-16.835v47.753h-13.055v-47.753h-16.92v-12.368h46.81zm-79.906 0v13.914h25.51v9.963h-25.51v23.876h-13.053v-60.121h41.14v12.368zm-31.603 17.692c0-10.821-6.87-18.723-17.35-18.723-6.097 0-10.65 2.319-13.398 5.325l2.062 2.062c-3.179 2.662-6.013 6.356-6.013 12.969 0 9.104 6.442 17.09 17.35 17.09 10.479 0 17.35-7.9 17.35-18.723zm13.227 0c0 17.694-12.712 31.092-30.576 31.092-18.294 0-30.576-13.14-30.576-29.03 0-10.307 4.036-17.78 9.962-22.675l-2.06-2.061c4.552-4.724 12.882-8.417 22.674-8.417 17.864 0 30.576 13.57 30.576 31.091zm-80.413-5.754c10.306 3.608 15.631 8.246 15.631 17.521 0 12.454-9.533 19.325-20.784 19.325-10.393 0-18.381-4.637-21.73-13.227l10.392-7.729c1.89 5.411 6.785 8.76 11.681 8.76 4.294 0 7.387-2.32 7.387-6.184 0-3.607-2.32-5.84-10.909-8.932-9.276-3.35-16.147-7.988-16.147-17.95 0-9.62 7.988-16.92 19.583-16.92 9.19 0 16.319 3.692 19.669 10.993l-10.394 7.214c-1.975-4.466-5.066-6.956-9.79-6.956-3.951 0-6.871 2.147-6.871 5.239 0 3.52 3.263 5.668 12.282 8.846zm-44.605-24.306h13.054v60.121h-13.054zm-26.874 48.612c5.582 0 8.76-2.576 8.76-7.557 0-4.982-3.178-7.558-8.76-7.558h-7.214v15.115zm-7.214-37.103v12.711h6.871c4.036 0 6.785-2.319 6.785-6.356 0-4.036-2.749-6.355-6.785-6.355zm29.03 30.748c0 10.392-8.16 17.864-21.3 17.864h-20.786v-60.121h20.014c11.594 0 19.239 5.582 19.239 14.514 0 6.786-3.178 10.908-7.902 12.884 6.355 2.405 10.736 6.786 10.736 14.859zm-48.548-42.257v36.073c0 14.344-8.761 25.079-24.822 25.079s-24.822-10.735-24.822-25.08v-36.072h13.055v35.042c0 8.76 4.123 13.742 11.767 13.742s11.766-4.981 11.766-13.742v-35.042z" fill="#fff"/></svg>
