<svg xmlns="http://www.w3.org/2000/svg" width="2500" height="683" viewBox="0 0 1265.167 345.818"><path fill="transparent" d="M.046 1.123l1216.249.962v343.734H0C0 231.86.046 1.123.046 1.123zm35.016 36.94v272.625h1146.169V38.063H35.062"/><path d="M381.728 73.103h54.552l57.438 202.591h-40.88l-13.649-50.637H378.82s-10.466 40.721-12.688 49.652c-12.138.961-41.842 0-41.842 0l57.438-201.606zm26.292 34.124l-21.436 85.653h44.795l-23.359-85.653M1008.826 73.103h83.775v26.314h-54.575v29.177h49.697v26.314h-49.697v30.139h54.575v26.337h-84.714l.939-138.281M765.403 73.103h40.925l38.91 150.97 37.994-150.97h40.903l-61.377 202.591H826.71L765.403 73.103M593.066 73.103h38.979V241.57h84.646v34.101H592.083c-.001-67.012-1.696-137.275.983-202.568M106.127 73.103h39.987l38.933 152.893 37.948-152.893h41.911l-61.4 202.591h-37.009l-60.37-202.591M1245.357 0c10.992 0 19.81 9 19.81 20.222 0 11.405-8.817 20.291-19.947 20.291-10.993 0-19.993-8.886-19.993-20.291C1225.249 9 1234.227 0 1245.243 0h.229-.115zm-.229 3.207c-8.863 0-16.146 7.604-16.146 17.016 0 9.665 7.282 17.085 16.283 17.085 8.954.137 16.1-7.42 16.1-16.947 0-9.55-7.168-17.154-16.1-17.154h-.229.092zm-3.778 28.741h-3.527V9.436c1.878-.252 3.618-.527 6.344-.527 3.367 0 5.634.756 6.985 1.672 1.374 1.008 2.038 2.542 2.038 4.672 0 2.978-1.946 4.764-4.352 5.52v.16c1.97.367 3.321 2.199 3.802 5.428.504 3.504 1.03 4.878 1.397 5.565h-3.756c-.436-.688-1.008-2.771-1.443-5.657-.48-2.908-1.969-3.984-4.809-3.984h-2.52v9.664h-.159zm0-12.435h2.61c2.932 0 5.45-1.099 5.45-3.87 0-1.97-1.442-3.939-5.45-3.939-1.146 0-1.97.069-2.61.184v7.625" fill="#fff"/></svg>
